<svg xmlns="http://www.w3.org/2000/svg" version="1.1" viewBox="0 0 100 100" fill="currentColor"><path d="M79.179,85.617c2.886-2.29,4.741-5.821,4.741-9.792c0-6.907-5.599-12.506-12.506-12.506c-0.799,0-1.578,0.083-2.335,0.226  c-1.988-3.716-5.899-6.247-10.407-6.247c-1.05,0-2.063,0.15-3.031,0.407c0.009-0.154,0.025-0.307,0.025-0.463  c0-1.054-0.203-2.058-0.56-2.985c1.192,0.565,2.389,1.118,3.579,1.665c4.813,2.209,9.725,4.172,14.655,6.097  c2.827,1.104,5.938,2.043,8.114,4.279c2.656,2.732,3.477,6.689,3.525,10.374c0.012,0.824-0.343,8.786-1.898,8.031  c1.016,0.493,2.07,0.982,3.154,1.312c2.031,0.618,2.623-3.684,2.805-4.896c0.711-4.726,0.18-9.399-2.725-13.302  c-2.629-3.534-6.283-6.081-10.148-8.102c-1.037-0.543-2.084-1.044-3.121-1.508c-2.775-1.241-5.512-2.594-8.149-4.105  C55.189,48.535,46.105,41.7,37.298,34.818c-4.473-3.494-8.874-7.112-13.129-10.87c4.232,6.43,8.105,13.212,13.455,18.811  c2.359,2.47,5.044,4.533,7.904,6.35c-1.422,0.316-2.709,0.991-3.758,1.931c-2.493-3.08-4.944-6.193-7.319-9.365  c-3.455-4.615-6.8-9.326-9.873-14.206c-1.042-1.655-2.006-3.4-2.591-5.276c-0.03-0.095-0.938-2.925-0.938-2.925l-0.604,2.821  c0,0,0.022,4.848,0.051,5.138c1.028,10.544,4.561,20.951,9.114,30.448c3.742,7.805,7.718,16.282,13.992,22.399  c3.414,3.329,8.025,6.362,12.567,7.91c11.414,3.888,23.803,2.565,35.163-1.043C87.92,88.024,79.548,85.741,79.179,85.617z   M42.759,52.274c1.036-0.569,2.222-0.899,3.488-0.899c3.966,0,7.183,3.182,7.25,7.129c-1.278,0.626-2.426,1.471-3.394,2.494  C47.62,58.119,45.164,55.219,42.759,52.274z M59.113,71.945c-2.561-2.943-5.01-5.992-7.408-9.083  c-0.093-0.106-0.184-0.215-0.276-0.322c1.634-1.097,3.596-1.744,5.712-1.744c3.354,0,6.318,1.618,8.193,4.104  c-2.834,1.581-4.985,4.231-5.915,7.407C59.316,72.188,59.217,72.064,59.113,71.945z M69.293,82.641  c-3.811-2.467-6.398-6.155-9.242-9.583c1.783-3.576,5.475-6.033,9.742-6.033c6.012,0,10.885,4.873,10.885,10.885  c0,2.938-1.165,5.602-3.057,7.56C74.684,85.147,71.514,84.079,69.293,82.641z"/><path d="M27.702,10.529c-0.359-1.263-1.854-2.038-3.092-2.149c-0.313-0.028-0.637-0.013-0.961,0.039  c0.381-1.029,1.182-1.705,2.294-1.895c-0.887,0.23-1.804,0.495-2.385,1.256c-0.169,0.222-0.302,0.479-0.417,0.75  c-0.774,0.213-1.513,0.62-2.065,1.141c-0.548,0.517-0.838,1.23-1.01,1.951c-0.013,0.054-0.183,0.971-0.139,1.274l-0.415,0.009  l-0.718,7.066l1.271-2.635l0.379,2.752l0.604-2.821l1.223,2.697l-0.556-7.109l-0.4,0.009c0.035-0.878,0.438-2.448,1.515-3.155  c-0.114,0.912,0.019,1.868,0.429,2.596C24.479,14.466,28.391,12.953,27.702,10.529z M24.317,12.376  c-0.913-0.692-1.071-1.85-0.931-2.924c0.048-0.015,0.088-0.042,0.139-0.054c0.844-0.191,1.955-0.256,2.715,0.223  C28.082,10.783,26.028,13.672,24.317,12.376z"/></svg>